<svg width="160" height="90" viewBox="0 0 160 90" fill="none" xmlns="http://www.w3.org/2000/svg">
<g clip-path="url(#clip0_134_649)">
<g clip-path="url(#clip1_134_649)">
<path fill-rule="evenodd" clip-rule="evenodd" d="M92.1402 53.461C86.5068 57.725 78.3415 60.0001 71.3114 60.0001C61.4539 60.0001 52.5797 56.256 45.8661 50.0289C45.3386 49.5393 45.8112 48.8719 46.4442 49.2533C53.6895 53.5823 62.6481 56.1867 71.9021 56.1867C78.1432 56.1867 85.0088 54.8607 91.3216 52.109C92.2753 51.693 93.0728 52.7503 92.1402 53.461Z" fill="#FF9900"/>
<path fill-rule="evenodd" clip-rule="evenodd" d="M94.4824 50.7093C93.7651 49.7646 89.7225 50.2629 87.908 50.4839C87.3552 50.5533 87.2708 50.0593 87.7688 49.7039C90.9885 47.3769 96.2716 48.0486 96.8877 48.8286C97.5038 49.6129 96.7274 55.0513 93.7018 57.647C93.2376 58.0457 92.7945 57.8333 93.0013 57.3047C93.6807 55.5627 95.204 51.6583 94.4824 50.7093Z" fill="#FF9900"/>
<path fill-rule="evenodd" clip-rule="evenodd" d="M88.0349 33.2762V31.0141C88.0349 30.6718 88.2881 30.4421 88.5919 30.4421H98.4535C98.77 30.4421 99.0232 30.6761 99.0232 31.0141V32.9512C99.019 33.2762 98.7531 33.7008 98.2805 34.3725L93.1703 41.8649C95.0693 41.8173 97.0737 42.1076 98.7953 43.1043C99.1835 43.3296 99.289 43.6589 99.3186 43.9839V46.3976C99.3186 46.727 98.9641 47.1126 98.5928 46.9133C95.5587 45.2796 91.5288 45.102 88.1741 46.9306C87.8323 47.1213 87.4736 46.74 87.4736 46.4106V44.1183C87.4736 43.7499 87.4778 43.1216 87.8365 42.5626L93.7569 33.8438H88.6045C88.288 33.8438 88.0349 33.6142 88.0349 33.2762Z" fill="#1D1E25"/>
<path fill-rule="evenodd" clip-rule="evenodd" d="M52.0611 47.3898H49.0608C48.7739 47.3681 48.546 47.1471 48.5249 46.8654V31.053C48.5249 30.7366 48.7823 30.4853 49.103 30.4853H51.9007C52.1919 30.4983 52.424 30.728 52.4451 31.014V33.081H52.4999C53.23 31.0833 54.6014 30.1516 56.4497 30.1516C58.3275 30.1516 59.5006 31.0833 60.3445 33.081C61.0703 31.0833 62.7203 30.1516 64.4884 30.1516C65.7459 30.1516 67.1215 30.6846 67.9612 31.8806C68.9107 33.211 68.7166 35.1437 68.7166 36.838L68.7124 46.8178C68.7124 47.1341 68.455 47.3898 68.1343 47.3898H65.1382C64.8386 47.3681 64.5981 47.1211 64.5981 46.8178V38.437C64.5981 37.7697 64.6571 36.1057 64.5137 35.473C64.29 34.4113 63.6191 34.1123 62.7498 34.1123C62.024 34.1123 61.2644 34.6107 60.9564 35.408C60.6484 36.2053 60.6779 37.54 60.6779 38.437V46.8178C60.6779 47.1341 60.4205 47.3898 60.0998 47.3898H57.1037C56.7999 47.3681 56.5636 47.1211 56.5636 46.8178L56.5594 38.437C56.5594 36.6733 56.8421 34.0777 54.7111 34.0777C52.5548 34.0777 52.6392 36.6083 52.6392 38.437V46.8178C52.6392 47.1341 52.3818 47.3898 52.0611 47.3898" fill="#1D1E25"/>
<path fill-rule="evenodd" clip-rule="evenodd" d="M107.513 30.1516C111.965 30.1516 114.374 34.0777 114.374 39.0697C114.374 43.8928 111.712 47.7191 107.513 47.7191C103.141 47.7191 100.761 43.7931 100.761 38.9007C100.761 33.978 103.171 30.1516 107.513 30.1516ZM107.538 33.38C105.327 33.38 105.188 36.474 105.188 38.4024C105.188 40.3351 105.158 44.4604 107.513 44.4604C109.838 44.4604 109.948 41.1324 109.948 39.1044C109.948 37.7697 109.893 36.175 109.5 34.9097C109.163 33.809 108.492 33.38 107.538 33.38Z" fill="#1D1E25"/>
<path fill-rule="evenodd" clip-rule="evenodd" d="M120.147 47.3898H117.16C116.86 47.3681 116.619 47.1211 116.619 46.8178L116.615 31.001C116.641 30.7106 116.89 30.4853 117.193 30.4853H119.974C120.236 30.4983 120.451 30.6803 120.51 30.9273V33.3453H120.565C121.405 31.183 122.582 30.1516 124.654 30.1516C126 30.1516 127.312 30.65 128.156 32.015C128.941 33.2803 128.941 35.408 128.941 36.9377V46.8914C128.907 47.1688 128.658 47.3898 128.363 47.3898H125.354C125.08 47.3681 124.852 47.1601 124.823 46.8914V38.3027C124.823 36.5737 125.017 34.043 122.945 34.043C122.215 34.043 121.544 34.5457 121.211 35.3083C120.789 36.2747 120.734 37.2367 120.734 38.3027V46.8178C120.73 47.1341 120.468 47.3898 120.147 47.3898" fill="#1D1E25"/>
<path fill-rule="evenodd" clip-rule="evenodd" d="M80.173 39.8368C80.173 41.0371 80.2025 42.0381 79.6117 43.1041C79.1349 43.9708 78.3754 44.5038 77.5356 44.5038C76.3836 44.5038 75.7084 43.6025 75.7084 42.2721C75.7084 39.6461 77.9998 39.1694 80.173 39.1694V39.8368ZM83.1986 47.3465C83.0002 47.5285 82.7133 47.5415 82.4896 47.4202C81.4938 46.5708 81.3123 46.1765 80.768 45.3662C79.1223 47.0908 77.9534 47.6065 75.8224 47.6065C73.2947 47.6065 71.3325 46.0075 71.3325 42.8051C71.3325 40.3048 72.6491 38.6018 74.5311 37.7697C76.16 37.0331 78.4344 36.9031 80.173 36.6994V36.3007C80.173 35.5684 80.2278 34.7017 79.8059 34.069C79.443 33.5014 78.7425 33.2674 78.1222 33.2674C76.9786 33.2674 75.9616 33.8697 75.7127 35.1177C75.662 35.3951 75.4637 35.6681 75.1894 35.6811L72.282 35.3604C72.0372 35.3041 71.7629 35.1004 71.8347 34.7147C72.5014 31.092 75.6916 30 78.5441 30C80.0042 30 81.9115 30.3987 83.0635 31.534C84.5236 32.9337 84.3843 34.8014 84.3843 36.8337V41.6351C84.3843 43.0781 84.9667 43.7108 85.5152 44.4908C85.7051 44.7682 85.7473 45.1018 85.5026 45.3098C84.8907 45.8342 83.802 46.8092 83.2028 47.3552L83.1986 47.3465" fill="#1D1E25"/>
<path fill-rule="evenodd" clip-rule="evenodd" d="M40.8405 39.837C40.8405 41.0374 40.87 42.0384 40.2792 43.1044C39.8024 43.9711 39.047 44.5041 38.2031 44.5041C37.0511 44.5041 36.3801 43.6027 36.3801 42.2724C36.3801 39.6463 38.6715 39.1697 40.8405 39.1697V39.837ZM43.866 47.3468C43.6677 47.5288 43.3808 47.5418 43.1571 47.4204C42.1612 46.5711 41.984 46.1767 41.4354 45.3664C39.7897 47.0911 38.6251 47.6068 36.4899 47.6068C33.9664 47.6068 32 46.0077 32 42.8054C32 40.305 33.3208 38.602 35.1986 37.77C36.8274 37.0333 39.1019 36.9033 40.8405 36.6996V36.301C40.8405 35.5686 40.8953 34.702 40.4776 34.0693C40.1104 33.5016 39.4099 33.2676 38.7939 33.2676C37.6503 33.2676 36.6291 33.87 36.3801 35.118C36.3295 35.3953 36.1312 35.6683 35.8611 35.6813L32.9495 35.3606C32.7047 35.3043 32.4346 35.1006 32.5022 34.715C33.1731 31.0923 36.359 30.0002 39.2116 30.0002C40.6717 30.0002 42.579 30.3989 43.731 31.5343C45.1911 32.9339 45.0518 34.8016 45.0518 36.834V41.6354C45.0518 43.0784 45.6341 43.7111 46.1827 44.4911C46.3768 44.7684 46.419 45.1021 46.1743 45.3101C45.5624 45.8344 44.4737 46.8094 43.8745 47.3554L43.866 47.3467" fill="#1D1E25"/>
</g>
</g>
<defs>
<clipPath id="clip0_134_649">
<rect width="160" height="90" fill="white"/>
</clipPath>
<clipPath id="clip1_134_649">
<rect width="96.9412" height="30" fill="white" transform="translate(32 30)"/>
</clipPath>
</defs>
</svg>
