<svg width="160" height="90" viewBox="0 0 160 90" fill="none" xmlns="http://www.w3.org/2000/svg">
<g clip-path="url(#clip0_134_668)">
<g clip-path="url(#clip1_134_668)">
<path d="M63.119 46.8516L62.4346 48.779H62.3776C62.2635 48.3444 62.0544 47.683 61.7122 46.8894L58.0432 37.7252H54.4502V52.3313H56.8265V43.3182C56.8265 42.7513 56.8265 42.1089 56.8075 41.3153C56.7885 40.9185 56.7505 40.6162 56.7315 40.3894H56.7885C56.9025 40.9563 57.0356 41.372 57.1307 41.6365L61.5411 52.2935H63.214L67.5865 41.542C67.6815 41.2964 67.7766 40.8051 67.8716 40.3894H67.9287C67.8716 41.4665 67.8336 42.4301 67.8146 43.0159V52.2746H70.343V37.6874H66.8831L63.119 46.8516ZM72.7383 41.8066H75.2097V52.2746H72.7383V41.8066ZM73.993 37.3851C73.5748 37.3851 73.2326 37.5362 72.9474 37.8008C72.6623 38.0653 72.5102 38.4054 72.5102 38.8211C72.5102 39.2179 72.6623 39.558 72.9474 39.8226C73.2326 40.0871 73.5748 40.2194 73.993 40.2194C74.4112 40.2194 74.7724 40.0682 75.0386 39.8226C75.3237 39.558 75.4758 39.2179 75.4758 38.8211C75.4758 38.4243 75.3237 38.0842 75.0386 37.8008C74.7914 37.5362 74.4302 37.3851 73.993 37.3851ZM83.9735 41.7121C83.5173 41.6176 83.042 41.5609 82.5858 41.5609C81.4641 41.5609 80.4376 41.8066 79.5821 42.2979C78.7266 42.7891 78.0422 43.4694 77.605 44.3197C77.1488 45.1888 76.9206 46.1903 76.9206 47.3429C76.9206 48.3444 77.1487 49.2324 77.586 50.0449C78.0232 50.8385 78.6316 51.481 79.449 51.9156C80.2285 52.3502 81.141 52.5769 82.1675 52.5769C83.3462 52.5769 84.3537 52.3313 85.1522 51.8778L85.1712 51.8589V49.5915L85.0761 49.667C84.7149 49.9316 84.2967 50.1583 83.8785 50.2906C83.4412 50.4417 83.042 50.5173 82.6998 50.5173C81.7113 50.5173 80.9318 50.2339 80.3805 49.6104C79.8102 49.0057 79.5251 48.1743 79.5251 47.1351C79.5251 46.058 79.8102 45.2077 80.3996 44.5842C80.9889 43.9606 81.7683 43.6394 82.7188 43.6394C83.5173 43.6394 84.3347 43.904 85.0761 44.433L85.1712 44.5086V42.1089L85.1522 42.09C84.829 41.9577 84.4678 41.8066 83.9735 41.7121ZM92.129 41.6365C91.5207 41.6365 90.9504 41.8255 90.4561 42.2223C90.0379 42.5624 89.7527 43.0537 89.5056 43.6394H89.4866V41.8066H87.0152V52.2746H89.4866V46.9272C89.4866 46.0202 89.6767 45.2644 90.0949 44.7165C90.5131 44.1496 91.0454 43.8662 91.6918 43.8662C91.9199 43.8662 92.148 43.9229 92.4332 43.9606C92.6994 44.0362 92.8895 44.1118 93.0225 44.2063L93.1176 44.2819V41.8255L93.0606 41.8066C92.8895 41.6932 92.5473 41.6365 92.129 41.6365ZM98.8588 41.5798C97.1288 41.5798 95.741 42.09 94.7715 43.0915C93.783 44.0929 93.3077 45.4723 93.3077 47.2106C93.3077 48.8356 93.802 50.1583 94.7525 51.122C95.703 52.0667 96.9957 52.558 98.6116 52.558C100.304 52.558 101.653 52.0479 102.623 51.0275C103.611 50.0072 104.087 48.6467 104.087 46.965C104.087 45.3022 103.63 43.9795 102.699 43.0159C101.805 42.0522 100.494 41.5798 98.8588 41.5798ZM100.836 49.6292C100.38 50.215 99.6572 50.4984 98.7637 50.4984C97.8702 50.4984 97.1478 50.215 96.6345 49.5915C96.1212 49.0057 95.8741 48.1554 95.8741 47.0784C95.8741 45.9635 96.1403 45.1133 96.6345 44.5086C97.1478 43.904 97.8512 43.6016 98.7447 43.6016C99.6192 43.6016 100.304 43.8851 100.798 44.4708C101.292 45.0566 101.558 45.9069 101.558 47.0217C101.52 48.1554 101.311 49.0435 100.836 49.6292ZM109.6 46.1525C108.82 45.8313 108.326 45.5856 108.098 45.3778C107.908 45.1888 107.813 44.9243 107.813 44.5842C107.813 44.3008 107.927 44.0173 108.212 43.8284C108.497 43.6394 108.82 43.5449 109.296 43.5449C109.714 43.5449 110.151 43.6205 110.569 43.7339C110.987 43.8473 111.368 44.0173 111.672 44.2441L111.767 44.3197V42.0144L111.71 41.9955C111.425 41.8822 111.045 41.7688 110.588 41.6743C110.132 41.5987 109.714 41.5609 109.372 41.5609C108.193 41.5609 107.223 41.8444 106.463 42.4679C105.703 43.0537 105.341 43.8473 105.341 44.7731C105.341 45.2644 105.417 45.699 105.588 46.058C105.76 46.417 106.007 46.7572 106.349 47.0406C106.691 47.3051 107.185 47.6074 107.87 47.8909C108.44 48.1365 108.877 48.3255 109.143 48.4766C109.41 48.6278 109.581 48.7979 109.714 48.9301C109.809 49.0813 109.866 49.2702 109.866 49.5159C109.866 50.215 109.334 50.5551 108.25 50.5551C107.832 50.5551 107.394 50.4795 106.881 50.3095C106.368 50.1394 105.893 49.8938 105.493 49.6104L105.398 49.5348V51.9345L105.455 51.9534C105.817 52.1234 106.254 52.2368 106.786 52.3691C107.318 52.4635 107.794 52.5391 108.212 52.5391C109.486 52.5391 110.531 52.2557 111.273 51.6322C112.033 51.0275 112.432 50.2528 112.432 49.2513C112.432 48.5522 112.242 47.9287 111.824 47.4563C111.273 47.0028 110.588 46.5304 109.6 46.1525ZM118.953 41.5798C117.223 41.5798 115.835 42.09 114.866 43.0915C113.896 44.0929 113.402 45.4723 113.402 47.2106C113.402 48.8356 113.896 50.1583 114.847 51.122C115.797 52.0667 117.09 52.558 118.706 52.558C120.398 52.558 121.747 52.0479 122.717 51.0275C123.706 50.0072 124.181 48.6467 124.181 46.965C124.181 45.3022 123.725 43.9795 122.793 43.0159C121.9 42.0522 120.588 41.5798 118.953 41.5798ZM120.911 49.6292C120.455 50.215 119.732 50.4984 118.839 50.4984C117.926 50.4984 117.223 50.215 116.71 49.5915C116.196 49.0057 115.949 48.1554 115.949 47.0784C115.949 45.9635 116.215 45.1133 116.71 44.5086C117.223 43.904 117.926 43.6016 118.82 43.6016C119.675 43.6016 120.379 43.8851 120.873 44.4708C121.367 45.0566 121.633 45.9069 121.633 47.0217C121.633 48.1554 121.386 49.0435 120.911 49.6292ZM137.393 43.8284V41.8066H134.903V38.7077L134.827 38.7266L132.469 39.4258L132.412 39.4447V41.8066H128.686V40.4839C128.686 39.8792 128.838 39.4069 129.104 39.1045C129.371 38.8022 129.77 38.651 130.264 38.651C130.606 38.651 130.968 38.7266 131.367 38.8967L131.462 38.9534V36.8182L131.405 36.7993C131.063 36.6859 130.606 36.6104 130.017 36.6104C129.276 36.6104 128.629 36.7804 128.04 37.0638C127.451 37.3851 127.013 37.8197 126.69 38.4054C126.367 38.9723 126.196 39.6147 126.196 40.3516V41.8066H124.466V43.8095H126.196V52.2746H128.686V43.8284H132.412V49.2136C132.412 51.4243 133.458 52.5391 135.549 52.5391C135.891 52.5391 136.252 52.4824 136.595 52.4258C136.956 52.3502 137.222 52.2557 137.374 52.1801L137.393 52.1612V50.1394L137.298 50.215C137.146 50.3095 137.013 50.3851 136.785 50.4417C136.595 50.4984 136.424 50.5173 136.29 50.5173C135.796 50.5173 135.454 50.404 135.207 50.1205C134.979 49.856 134.865 49.4214 134.865 48.779V43.8284H137.393Z" fill="#737373"/>
<path d="M22.5884 32.8125H34.2418V44.3953H22.5884V32.8125Z" fill="#F25022"/>
<path d="M35.4585 32.8125H47.1119V44.3953H35.4585V32.8125Z" fill="#7FBA00"/>
<path d="M22.5884 45.6047H34.2418V57.1876H22.5884V45.6047Z" fill="#00A4EF"/>
<path d="M35.4585 45.6047H47.1119V57.1876H35.4585V45.6047Z" fill="#FFB900"/>
</g>
</g>
<defs>
<clipPath id="clip0_134_668">
<rect width="160" height="90" fill="white"/>
</clipPath>
<clipPath id="clip1_134_668">
<rect width="114.824" height="24.375" fill="white" transform="translate(22.5884 32.8125)"/>
</clipPath>
</defs>
</svg>
