<svg xmlns="http://www.w3.org/2000/svg" xmlns:xlink="http://www.w3.org/1999/xlink"><defs>
<clipPath id="clip0_29573_862">
<rect width="20" height="20" fill="white"/>
</clipPath>

<clipPath id="clip0_29573_866">
<rect width="20" height="20" fill="white"/>
</clipPath>

<clipPath id="clip0_134_645">
<rect width="160" height="90" fill="white"/>
</clipPath>
<clipPath id="clip1_134_645">
<rect width="96.9412" height="30" fill="white" transform="translate(32 30)"/>
</clipPath>

<clipPath id="clip0_134_649">
<rect width="160" height="90" fill="white"/>
</clipPath>
<clipPath id="clip1_134_649">
<rect width="96.9412" height="30" fill="white" transform="translate(32 30)"/>
</clipPath>

<clipPath id="clip0_134_660">
<rect width="160" height="90" fill="white"/>
</clipPath>
<clipPath id="clip1_134_660">
<rect width="94.1176" height="28.125" fill="white" transform="translate(32.9414 30.9375)"/>
</clipPath>

<clipPath id="clip0_134_677">
<rect width="160" height="90" fill="white"/>
</clipPath>
<clipPath id="clip1_134_677">
<rect width="89.4118" height="30" fill="white" transform="translate(35.7646 30)"/>
</clipPath>

<clipPath id="clip0_134_668">
<rect width="160" height="90" fill="white"/>
</clipPath>
<clipPath id="clip1_134_668">
<rect width="114.824" height="24.375" fill="white" transform="translate(22.5884 32.8125)"/>
</clipPath>
</defs><symbol id="calendar" viewBox="0 0 40 40">
<path d="M13.3333 11.6667V5M26.6667 11.6667V5M11.6667 18.3333H28.3333M8.33333 35H31.6667C33.5076 35 35 33.5076 35 31.6667V11.6667C35 9.82572 33.5076 8.33333 31.6667 8.33333H8.33333C6.49238 8.33333 5 9.82572 5 11.6667V31.6667C5 33.5076 6.49238 35 8.33333 35Z" stroke-width="3" stroke-linecap="round" stroke-linejoin="round"/>
</symbol><symbol id="check" viewBox="0 0 40 40">
<path d="M15 20L18.3333 23.3334L25 16.6667M34.3632 9.9739C34.0221 9.9912 33.6787 9.99995 33.3333 9.99995C28.2109 9.99995 23.5383 8.07422 19.9999 4.90723C16.4615 8.0741 11.789 9.99975 6.66667 9.99975C6.32129 9.99975 5.97796 9.99099 5.63688 9.9737C5.22117 11.5797 5 13.264 5 15C5 24.3192 11.3739 32.1497 20 34.3699C28.6261 32.1497 35 24.3192 35 15C35 13.2641 34.7788 11.5799 34.3632 9.9739Z" stroke-width="3" stroke-linecap="round" stroke-linejoin="round"/>
</symbol><symbol id="checkGreen" viewBox="0 0 24 24">
<path d="M9 12L11 14L15 10M21 12C21 16.9706 16.9706 21 12 21C7.02944 21 3 16.9706 3 12C3 7.02944 7.02944 3 12 3C16.9706 3 21 7.02944 21 12Z" stroke-width="2" stroke-linecap="round" stroke-linejoin="round"/>
</symbol><symbol id="desk" viewBox="0 0 40 40">
<path d="M16.0608 22.2727C15.475 21.6869 14.5253 21.6869 13.9395 22.2727C13.3537 22.8585 13.3537 23.8082 13.9395 24.394L15.0002 23.3333L16.0608 22.2727ZM18.3335 26.6667L17.2728 27.7273C17.8586 28.3131 18.8084 28.3131 19.3942 27.7273L18.3335 26.6667ZM26.0608 21.0607C26.6466 20.4749 26.6466 19.5251 26.0608 18.9393C25.475 18.3536 24.5253 18.3536 23.9395 18.9393L25.0002 20L26.0608 21.0607ZM31.6668 11.6667H30.1668V31.6667H31.6668H33.1668V11.6667H31.6668ZM28.3335 35V33.5H11.6668V35V36.5H28.3335V35ZM8.3335 31.6667H9.8335V11.6667H8.3335H6.8335V31.6667H8.3335ZM11.6668 8.33333V9.83333H15.0002V8.33333V6.83333H11.6668V8.33333ZM25.0002 8.33333V9.83333H28.3335V8.33333V6.83333H25.0002V8.33333ZM11.6668 35V33.5C10.6543 33.5 9.8335 32.6792 9.8335 31.6667H8.3335H6.8335C6.8335 34.336 8.99745 36.5 11.6668 36.5V35ZM31.6668 31.6667H30.1668C30.1668 32.6792 29.346 33.5 28.3335 33.5V35V36.5C31.0029 36.5 33.1668 34.336 33.1668 31.6667H31.6668ZM31.6668 11.6667H33.1668C33.1668 8.99729 31.0029 6.83333 28.3335 6.83333V8.33333V9.83333C29.346 9.83333 30.1668 10.6541 30.1668 11.6667H31.6668ZM8.3335 11.6667H9.8335C9.8335 10.6541 10.6543 9.83333 11.6668 9.83333V8.33333V6.83333C8.99745 6.83333 6.8335 8.99729 6.8335 11.6667H8.3335ZM15.0002 23.3333L13.9395 24.394L17.2728 27.7273L18.3335 26.6667L19.3942 25.606L16.0608 22.2727L15.0002 23.3333ZM18.3335 26.6667L19.3942 27.7273L26.0608 21.0607L25.0002 20L23.9395 18.9393L17.2728 25.606L18.3335 26.6667ZM18.3335 5V6.5H21.6668V5V3.5H18.3335V5ZM21.6668 11.6667V10.1667H18.3335V11.6667V13.1667H21.6668V11.6667ZM18.3335 11.6667V10.1667C17.321 10.1667 16.5002 9.34586 16.5002 8.33333H15.0002H13.5002C13.5002 11.0027 15.6641 13.1667 18.3335 13.1667V11.6667ZM25.0002 8.33333H23.5002C23.5002 9.34586 22.6794 10.1667 21.6668 10.1667V11.6667V13.1667C24.3362 13.1667 26.5002 11.0027 26.5002 8.33333H25.0002ZM21.6668 5V6.5C22.6794 6.5 23.5002 7.32081 23.5002 8.33333H25.0002H26.5002C26.5002 5.66396 24.3362 3.5 21.6668 3.5V5ZM18.3335 5V3.5C15.6641 3.5 13.5002 5.66396 13.5002 8.33333H15.0002H16.5002C16.5002 7.32081 17.321 6.5 18.3335 6.5V5Z"/>
</symbol><symbol id="fieldsDesk" viewBox="0 0 40 40">
<path d="M15.0002 8.33333H11.6668C9.82588 8.33333 8.3335 9.82572 8.3335 11.6667V31.6667C8.3335 33.5076 9.82588 35 11.6668 35H28.3335C30.1744 35 31.6668 33.5076 31.6668 31.6667V11.6667C31.6668 9.82572 30.1744 8.33333 28.3335 8.33333H25.0002M15.0002 8.33333C15.0002 10.1743 16.4925 11.6667 18.3335 11.6667H21.6668C23.5078 11.6667 25.0002 10.1743 25.0002 8.33333M15.0002 8.33333C15.0002 6.49238 16.4925 5 18.3335 5H21.6668C23.5078 5 25.0002 6.49238 25.0002 8.33333M20.0002 20H25.0002M20.0002 26.6667H25.0002M15.0002 20H15.0168M15.0002 26.6667H15.0168" stroke-width="3" stroke-linecap="round"/>
</symbol><symbol id="notification" viewBox="0 0 34 34">
<path d="M21.0472 24.1991C23.7312 23.8807 26.3193 23.2497 28.7741 22.3435C26.7386 20.0841 25.4997 17.093 25.4997 13.8125V12.8197C25.4999 12.7965 25.5 12.7732 25.5 12.75C25.5 8.05558 21.6944 4.25 17 4.25C12.3056 4.25 8.5 8.05558 8.5 12.75L8.49972 13.8125C8.49972 17.093 7.2608 20.0841 5.22534 22.3435C7.68032 23.2498 10.2686 23.8808 12.9528 24.1992M21.0472 24.1991C19.72 24.3565 18.3693 24.4375 16.9997 24.4375C15.6303 24.4375 14.2798 24.3565 12.9528 24.1992M21.0472 24.1991C21.1789 24.6091 21.25 25.0462 21.25 25.5C21.25 27.8472 19.3472 29.75 17 29.75C14.6528 29.75 12.75 27.8472 12.75 25.5C12.75 25.0463 12.8211 24.6091 12.9528 24.1992" stroke-width="2" stroke-linecap="round" stroke-linejoin="round"/>
</symbol><symbol id="quotes" viewBox="0 0 115 77">
<path d="M44.3282 77H0L28.37 0H57.5L44.3282 77ZM101.828 77H57.7533L86.1234 0H115L101.828 77Z"/>
</symbol><symbol id="search" viewBox="0 0 34 34">
<path d="M29.75 29.75L22.388 22.388M22.388 22.388C24.3108 20.4653 25.5 17.809 25.5 14.875C25.5 9.00697 20.743 4.25 14.875 4.25C9.00697 4.25 4.25 9.00697 4.25 14.875C4.25 20.743 9.00697 25.5 14.875 25.5C17.809 25.5 20.4653 24.3108 22.388 22.388Z" stroke-width="2" stroke-linecap="round" stroke-linejoin="round"/>
</symbol><symbol id="stars" viewBox="0 0 132 20">
<path fill-rule="evenodd" clip-rule="evenodd" d="M11.227 0.796478L13.2574 5.09148C13.4564 5.51312 13.8405 5.8055 14.2859 5.87316L18.8282 6.56543C19.9504 6.73699 20.397 8.17711 19.5848 9.00228L16.3002 12.344C15.9774 12.6727 15.8305 13.1451 15.9068 13.609L16.682 18.3268C16.8729 19.4939 15.6997 20.3843 14.6967 19.8322L10.6369 17.6032C10.2389 17.3845 9.76225 17.3845 9.3631 17.6032L5.30334 19.8322C4.30026 20.3843 3.1271 19.4939 3.31916 18.3268L4.09316 13.609C4.16952 13.1451 4.02259 12.6727 3.6998 12.344L0.4152 9.00228C-0.396983 8.17711 0.0496019 6.73699 1.17185 6.56543L5.71406 5.87316C6.15949 5.8055 6.54475 5.51312 6.74375 5.09148L8.77305 0.796478C9.27517 -0.265493 10.7248 -0.265493 11.227 0.796478Z"/>
<path fill-rule="evenodd" clip-rule="evenodd" d="M39.227 0.796478L41.2574 5.09148C41.4564 5.51312 41.8405 5.8055 42.2859 5.87316L46.8282 6.56543C47.9504 6.73699 48.397 8.17711 47.5848 9.00228L44.3002 12.344C43.9774 12.6727 43.8305 13.1451 43.9068 13.609L44.682 18.3268C44.8729 19.4939 43.6997 20.3843 42.6967 19.8322L38.6369 17.6032C38.2389 17.3845 37.7622 17.3845 37.3631 17.6032L33.3033 19.8322C32.3003 20.3843 31.1271 19.4939 31.3192 18.3268L32.0932 13.609C32.1695 13.1451 32.0226 12.6727 31.6998 12.344L28.4152 9.00228C27.603 8.17711 28.0496 6.73699 29.1718 6.56543L33.7141 5.87316C34.1595 5.8055 34.5448 5.51312 34.7437 5.09148L36.773 0.796478C37.2752 -0.265493 38.7248 -0.265493 39.227 0.796478Z"/>
<path fill-rule="evenodd" clip-rule="evenodd" d="M67.227 0.796478L69.2574 5.09148C69.4564 5.51312 69.8405 5.8055 70.2859 5.87316L74.8282 6.56543C75.9504 6.73699 76.397 8.17711 75.5848 9.00228L72.3002 12.344C71.9774 12.6727 71.8305 13.1451 71.9068 13.609L72.682 18.3268C72.8729 19.4939 71.6997 20.3843 70.6967 19.8322L66.6369 17.6032C66.2389 17.3845 65.7622 17.3845 65.3631 17.6032L61.3033 19.8322C60.3003 20.3843 59.1271 19.4939 59.3192 18.3268L60.0932 13.609C60.1695 13.1451 60.0226 12.6727 59.6998 12.344L56.4152 9.00228C55.603 8.17711 56.0496 6.73699 57.1718 6.56543L61.7141 5.87316C62.1595 5.8055 62.5448 5.51312 62.7437 5.09148L64.773 0.796478C65.2752 -0.265493 66.7248 -0.265493 67.227 0.796478Z"/>
<path fill-rule="evenodd" clip-rule="evenodd" d="M95.227 0.796478L97.2574 5.09148C97.4564 5.51312 97.8405 5.8055 98.2859 5.87316L102.828 6.56543C103.95 6.73699 104.397 8.17711 103.585 9.00228L100.3 12.344C99.9774 12.6727 99.8305 13.1451 99.9068 13.609L100.682 18.3268C100.873 19.4939 99.6997 20.3843 98.6967 19.8322L94.6369 17.6032C94.2389 17.3845 93.7622 17.3845 93.3631 17.6032L89.3033 19.8322C88.3003 20.3843 87.1271 19.4939 87.3192 18.3268L88.0932 13.609C88.1695 13.1451 88.0226 12.6727 87.6998 12.344L84.4152 9.00228C83.603 8.17711 84.0496 6.73699 85.1718 6.56543L89.7141 5.87316C90.1595 5.8055 90.5448 5.51312 90.7437 5.09148L92.773 0.796478C93.2752 -0.265493 94.7248 -0.265493 95.227 0.796478Z"/>
<path fill-rule="evenodd" clip-rule="evenodd" d="M123.227 0.796478L125.257 5.09148C125.456 5.51312 125.841 5.8055 126.286 5.87316L130.828 6.56543C131.95 6.73699 132.397 8.17711 131.585 9.00228L128.3 12.344C127.977 12.6727 127.83 13.1451 127.907 13.609L128.682 18.3268C128.873 19.4939 127.7 20.3843 126.697 19.8322L122.637 17.6032C122.239 17.3845 121.762 17.3845 121.363 17.6032L117.303 19.8322C116.3 20.3843 115.127 19.4939 115.319 18.3268L116.093 13.609C116.17 13.1451 116.023 12.6727 115.7 12.344L112.415 9.00228C111.603 8.17711 112.05 6.73699 113.172 6.56543L117.714 5.87316C118.159 5.8055 118.545 5.51312 118.744 5.09148L120.773 0.796478C121.275 -0.265493 122.725 -0.265493 123.227 0.796478Z"/>
</symbol><symbol id="starsFilled" viewBox="0 0 132 20">
<path fill-rule="evenodd" clip-rule="evenodd" d="M11.227 0.796478L13.2574 5.09148C13.4564 5.51312 13.8405 5.8055 14.2859 5.87316L18.8282 6.56543C19.9504 6.73699 20.397 8.17711 19.5848 9.00228L16.3002 12.344C15.9774 12.6727 15.8305 13.1451 15.9068 13.609L16.682 18.3268C16.8729 19.4939 15.6997 20.3843 14.6967 19.8322L10.6369 17.6032C10.2389 17.3845 9.76225 17.3845 9.3631 17.6032L5.30334 19.8322C4.30026 20.3843 3.1271 19.4939 3.31916 18.3268L4.09316 13.609C4.16952 13.1451 4.02259 12.6727 3.6998 12.344L0.4152 9.00228C-0.396983 8.17711 0.0496019 6.73699 1.17185 6.56543L5.71406 5.87316C6.15949 5.8055 6.54475 5.51312 6.74375 5.09148L8.77305 0.796478C9.27517 -0.265493 10.7248 -0.265493 11.227 0.796478Z"/>
<path fill-rule="evenodd" clip-rule="evenodd" d="M39.227 0.796478L41.2574 5.09148C41.4564 5.51312 41.8405 5.8055 42.2859 5.87316L46.8282 6.56543C47.9504 6.73699 48.397 8.17711 47.5848 9.00228L44.3002 12.344C43.9774 12.6727 43.8305 13.1451 43.9068 13.609L44.682 18.3268C44.8729 19.4939 43.6997 20.3843 42.6967 19.8322L38.6369 17.6032C38.2389 17.3845 37.7622 17.3845 37.3631 17.6032L33.3033 19.8322C32.3003 20.3843 31.1271 19.4939 31.3192 18.3268L32.0932 13.609C32.1695 13.1451 32.0226 12.6727 31.6998 12.344L28.4152 9.00228C27.603 8.17711 28.0496 6.73699 29.1718 6.56543L33.7141 5.87316C34.1595 5.8055 34.5448 5.51312 34.7437 5.09148L36.773 0.796478C37.2752 -0.265493 38.7248 -0.265493 39.227 0.796478Z"/>
<path fill-rule="evenodd" clip-rule="evenodd" d="M67.227 0.796478L69.2574 5.09148C69.4564 5.51312 69.8405 5.8055 70.2859 5.87316L74.8282 6.56543C75.9504 6.73699 76.397 8.17711 75.5848 9.00228L72.3002 12.344C71.9774 12.6727 71.8305 13.1451 71.9068 13.609L72.682 18.3268C72.8729 19.4939 71.6997 20.3843 70.6967 19.8322L66.6369 17.6032C66.2389 17.3845 65.7622 17.3845 65.3631 17.6032L61.3033 19.8322C60.3003 20.3843 59.1271 19.4939 59.3192 18.3268L60.0932 13.609C60.1695 13.1451 60.0226 12.6727 59.6998 12.344L56.4152 9.00228C55.603 8.17711 56.0496 6.73699 57.1718 6.56543L61.7141 5.87316C62.1595 5.8055 62.5448 5.51312 62.7437 5.09148L64.773 0.796478C65.2752 -0.265493 66.7248 -0.265493 67.227 0.796478Z"/>
<path fill-rule="evenodd" clip-rule="evenodd" d="M95.227 0.796478L97.2574 5.09148C97.4564 5.51312 97.8405 5.8055 98.2859 5.87316L102.828 6.56543C103.95 6.73699 104.397 8.17711 103.585 9.00228L100.3 12.344C99.9774 12.6727 99.8305 13.1451 99.9068 13.609L100.682 18.3268C100.873 19.4939 99.6997 20.3843 98.6967 19.8322L94.6369 17.6032C94.2389 17.3845 93.7622 17.3845 93.3631 17.6032L89.3033 19.8322C88.3003 20.3843 87.1271 19.4939 87.3192 18.3268L88.0932 13.609C88.1695 13.1451 88.0226 12.6727 87.6998 12.344L84.4152 9.00228C83.603 8.17711 84.0496 6.73699 85.1718 6.56543L89.7141 5.87316C90.1595 5.8055 90.5448 5.51312 90.7437 5.09148L92.773 0.796478C93.2752 -0.265493 94.7248 -0.265493 95.227 0.796478Z"/>
<path fill-rule="evenodd" clip-rule="evenodd" d="M123.227 0.796478L125.257 5.09148C125.456 5.51312 125.841 5.8055 126.286 5.87316L130.828 6.56543C131.95 6.73699 132.397 8.17711 131.585 9.00228L128.3 12.344C127.977 12.6727 127.83 13.1451 127.907 13.609L128.682 18.3268C128.873 19.4939 127.7 20.3843 126.697 19.8322L122.637 17.6032C122.239 17.3845 121.762 17.3845 121.363 17.6032L117.303 19.8322C116.3 20.3843 115.127 19.4939 115.319 18.3268L116.093 13.609C116.17 13.1451 116.023 12.6727 115.7 12.344L112.415 9.00228C111.603 8.17711 112.05 6.73699 113.172 6.56543L117.714 5.87316C118.159 5.8055 118.545 5.51312 118.744 5.09148L120.773 0.796478C121.275 -0.265493 122.725 -0.265493 123.227 0.796478Z"/>
</symbol><symbol id="facebook" viewBox="0 0 20 20">
<g clip-path="url(#clip0_29573_862)">
<path d="M20 10C20 4.47715 15.5229 0 10 0C4.47715 0 0 4.47715 0 10C0 14.9912 3.65684 19.1283 8.4375 19.8785V12.8906H5.89844V10H8.4375V7.79688C8.4375 5.29063 9.93047 3.90625 12.2146 3.90625C13.3084 3.90625 14.4531 4.10156 14.4531 4.10156V6.5625H13.1922C11.95 6.5625 11.5625 7.3334 11.5625 8.125V10H14.3359L13.8926 12.8906H11.5625V19.8785C16.3432 19.1283 20 14.9912 20 10Z"/>
</g>

</symbol><symbol id="intagram" viewBox="0 0 20 20">
<g clip-path="url(#clip0_29573_866)">
<path d="M10 1.80078C12.6719 1.80078 12.9883 1.8125 14.0391 1.85937C15.0156 1.90234 15.543 2.06641 15.8945 2.20313C16.3594 2.38281 16.6953 2.60156 17.043 2.94922C17.3945 3.30078 17.6094 3.63281 17.7891 4.09766C17.9258 4.44922 18.0898 4.98047 18.1328 5.95313C18.1797 7.00781 18.1914 7.32422 18.1914 9.99219C18.1914 12.6641 18.1797 12.9805 18.1328 14.0313C18.0898 15.0078 17.9258 15.5352 17.7891 15.8867C17.6094 16.3516 17.3906 16.6875 17.043 17.0352C16.6914 17.3867 16.3594 17.6016 15.8945 17.7813C15.543 17.918 15.0117 18.082 14.0391 18.125C12.9844 18.1719 12.668 18.1836 10 18.1836C7.32813 18.1836 7.01172 18.1719 5.96094 18.125C4.98438 18.082 4.45703 17.918 4.10547 17.7813C3.64063 17.6016 3.30469 17.3828 2.95703 17.0352C2.60547 16.6836 2.39063 16.3516 2.21094 15.8867C2.07422 15.5352 1.91016 15.0039 1.86719 14.0313C1.82031 12.9766 1.80859 12.6602 1.80859 9.99219C1.80859 7.32031 1.82031 7.00391 1.86719 5.95313C1.91016 4.97656 2.07422 4.44922 2.21094 4.09766C2.39063 3.63281 2.60938 3.29688 2.95703 2.94922C3.30859 2.59766 3.64063 2.38281 4.10547 2.20313C4.45703 2.06641 4.98828 1.90234 5.96094 1.85937C7.01172 1.8125 7.32813 1.80078 10 1.80078ZM10 0C7.28516 0 6.94531 0.0117187 5.87891 0.0585938C4.81641 0.105469 4.08594 0.277344 3.45313 0.523437C2.79297 0.78125 2.23438 1.12109 1.67969 1.67969C1.12109 2.23438 0.78125 2.79297 0.523438 3.44922C0.277344 4.08594 0.105469 4.8125 0.0585938 5.875C0.0117188 6.94531 0 7.28516 0 10C0 12.7148 0.0117188 13.0547 0.0585938 14.1211C0.105469 15.1836 0.277344 15.9141 0.523438 16.5469C0.78125 17.207 1.12109 17.7656 1.67969 18.3203C2.23438 18.875 2.79297 19.2188 3.44922 19.4727C4.08594 19.7188 4.8125 19.8906 5.875 19.9375C6.94141 19.9844 7.28125 19.9961 9.99609 19.9961C12.7109 19.9961 13.0508 19.9844 14.1172 19.9375C15.1797 19.8906 15.9102 19.7188 16.543 19.4727C17.1992 19.2188 17.7578 18.875 18.3125 18.3203C18.8672 17.7656 19.2109 17.207 19.4648 16.5508C19.7109 15.9141 19.8828 15.1875 19.9297 14.125C19.9766 13.0586 19.9883 12.7188 19.9883 10.0039C19.9883 7.28906 19.9766 6.94922 19.9297 5.88281C19.8828 4.82031 19.7109 4.08984 19.4648 3.45703C19.2188 2.79297 18.8789 2.23438 18.3203 1.67969C17.7656 1.125 17.207 0.78125 16.5508 0.527344C15.9141 0.28125 15.1875 0.109375 14.125 0.0625C13.0547 0.0117188 12.7148 0 10 0Z"/>
<path d="M10 4.86328C7.16406 4.86328 4.86328 7.16406 4.86328 10C4.86328 12.8359 7.16406 15.1367 10 15.1367C12.8359 15.1367 15.1367 12.8359 15.1367 10C15.1367 7.16406 12.8359 4.86328 10 4.86328ZM10 13.332C8.16016 13.332 6.66797 11.8398 6.66797 10C6.66797 8.16016 8.16016 6.66797 10 6.66797C11.8398 6.66797 13.332 8.16016 13.332 10C13.332 11.8398 11.8398 13.332 10 13.332Z"/>
<path d="M16.5391 4.66016C16.5391 5.32422 16 5.85938 15.3398 5.85938C14.6758 5.85938 14.1406 5.32031 14.1406 4.66016C14.1406 3.99609 14.6797 3.46094 15.3398 3.46094C16 3.46094 16.5391 4 16.5391 4.66016Z"/>
</g>

</symbol><symbol id="linkedin" viewBox="0 0 20 20">
<path d="M18.5195 0H1.47656C0.660156 0 0 0.644531 0 1.44141V18.5547C0 19.3516 0.660156 20 1.47656 20H18.5195C19.3359 20 20 19.3516 20 18.5586V1.44141C20 0.644531 19.3359 0 18.5195 0ZM5.93359 17.043H2.96484V7.49609H5.93359V17.043ZM4.44922 6.19531C3.49609 6.19531 2.72656 5.42578 2.72656 4.47656C2.72656 3.52734 3.49609 2.75781 4.44922 2.75781C5.39844 2.75781 6.16797 3.52734 6.16797 4.47656C6.16797 5.42187 5.39844 6.19531 4.44922 6.19531ZM17.043 17.043H14.0781V12.4023C14.0781 11.2969 14.0586 9.87109 12.5352 9.87109C10.9922 9.87109 10.7578 11.0781 10.7578 12.3242V17.043H7.79688V7.49609H10.6406V8.80078H10.6797C11.0742 8.05078 12.043 7.25781 13.4844 7.25781C16.4883 7.25781 17.043 9.23438 17.043 11.8047V17.043V17.043Z"/>
</symbol><symbol id="twitter" viewBox="0 0 20 20">
<path d="M6.2918 18.1251C13.8371 18.1251 17.9652 11.8724 17.9652 6.45167C17.9652 6.27589 17.9613 6.0962 17.9535 5.92042C18.7566 5.33967 19.4496 4.62033 20 3.7962C19.2521 4.12896 18.458 4.34627 17.6449 4.44074C18.5011 3.92755 19.1421 3.12135 19.4492 2.17159C18.6438 2.64892 17.763 2.98563 16.8445 3.1673C16.2257 2.50976 15.4075 2.07439 14.5164 1.9285C13.6253 1.78261 12.711 1.93433 11.9148 2.3602C11.1186 2.78607 10.4848 3.46238 10.1115 4.28455C9.73825 5.10672 9.64619 6.02897 9.84961 6.9087C8.21874 6.82686 6.62328 6.40321 5.16665 5.6652C3.71002 4.9272 2.42474 3.89132 1.39414 2.62472C0.870333 3.52782 0.710047 4.59649 0.945859 5.61353C1.18167 6.63057 1.79589 7.51966 2.66367 8.10011C2.01219 8.07943 1.37498 7.90402 0.804688 7.58839V7.63917C0.804104 8.58691 1.13175 9.50561 1.73192 10.2391C2.3321 10.9726 3.16777 11.4756 4.09687 11.6626C3.49338 11.8277 2.85999 11.8518 2.2457 11.7329C2.50788 12.548 3.01798 13.2609 3.70481 13.7721C4.39164 14.2833 5.22093 14.5673 6.07695 14.5845C4.62369 15.726 2.82848 16.3452 0.980469 16.3423C0.652739 16.3418 0.325333 16.3217 0 16.2821C1.87738 17.4866 4.06128 18.1263 6.2918 18.1251Z"/>
</symbol><symbol id="airbnb" viewBox="0 0 160 90">
<g clip-path="url(#clip0_134_645)">
<g clip-path="url(#clip1_134_645)">
<path d="M59.7895 51.2616C59.6374 50.896 59.4948 50.5116 59.3428 50.1835L58.6395 48.6178L58.611 48.5897C56.5201 44.0897 54.2866 39.5147 51.9201 35.0147L51.8251 34.8272C51.5875 34.3866 51.3499 33.8991 51.1028 33.4491C50.7987 32.9147 50.504 32.3428 50.0193 31.7991C49.5469 31.2302 48.9522 30.7718 48.2784 30.457C47.6045 30.1423 46.8682 29.979 46.1227 29.979C45.3771 29.979 44.6408 30.1423 43.9669 30.457C43.2931 30.7718 42.6985 31.2302 42.226 31.7991C41.7793 32.3428 41.4467 32.9147 41.1425 33.4491C40.9049 33.9366 40.6673 34.4147 40.4202 34.8553L40.3252 35.0428C37.9967 39.5428 35.7252 44.1178 33.6344 48.6178L33.5773 48.6741C33.3682 49.1616 33.1211 49.6678 32.8835 50.2116C32.7315 50.5397 32.5794 50.896 32.4273 51.2897C32.0168 52.3208 31.8857 53.4396 32.047 54.5358C32.2082 55.632 32.6563 56.6679 33.347 57.5414C34.0377 58.4148 34.9472 59.0956 35.9859 59.5167C37.0245 59.9378 38.1565 60.0847 39.2703 59.9428C40.338 59.8042 41.3662 59.4534 42.2925 58.9116C43.5281 58.2272 44.7161 57.2335 46.0466 55.7991C47.3772 57.2335 48.5937 58.2272 49.8007 58.921C50.9615 59.593 52.2759 59.9639 53.6214 59.9991C55.1794 60.0055 56.6872 59.4556 57.8663 58.451C59.0454 57.4464 59.8163 56.0549 60.0366 54.5335C60.2911 53.4401 60.205 52.2965 59.7895 51.2522V51.2616ZM46.1417 52.8178C44.507 50.7553 43.4425 48.8616 43.0814 47.2397C42.9317 46.6387 42.8995 46.0151 42.9863 45.4022C43.0529 44.9241 43.2334 44.5022 43.4805 44.146C44.0508 43.3303 45.0487 42.8241 46.1417 42.8241C46.6607 42.8085 47.1756 42.9202 47.6401 43.1493C48.1045 43.3783 48.5041 43.7176 48.8028 44.1366C49.0499 44.5116 49.2305 44.9241 49.2875 45.4022C49.3825 45.946 49.3445 46.5741 49.1925 47.2397C48.8313 48.8335 47.7669 50.746 46.1417 52.8178ZM58.2498 54.2053C58.1418 54.9778 57.8305 55.7088 57.347 56.3257C56.8634 56.9425 56.2244 57.4236 55.4936 57.721C54.7713 58.021 53.973 58.1053 53.1937 58.021C52.4333 57.9272 51.673 57.6835 50.8937 57.2335C49.5997 56.4446 48.4362 55.4644 47.4437 54.3272C49.4396 51.8897 50.6466 49.6678 51.1028 47.6897C51.3214 46.7522 51.3499 45.9085 51.2548 45.1303C51.1362 44.3928 50.8574 43.6893 50.4375 43.0678C49.9581 42.394 49.3182 41.8467 48.5742 41.474C47.8301 41.1013 47.0046 40.9146 46.1702 40.9303C44.4119 40.9303 42.8438 41.7366 41.8934 43.0585C41.4655 43.6783 41.189 44.3875 41.0855 45.1303C40.962 45.9178 40.9905 46.7897 41.2376 47.6897C41.6938 49.6678 42.9293 51.9178 44.8966 54.346C43.921 55.5049 42.7548 56.4937 41.4467 57.271C40.6578 57.721 39.907 57.9553 39.1467 58.0491C37.9643 58.1985 36.7699 57.8815 35.8231 57.167C34.8763 56.4525 34.2537 55.3983 34.0906 54.2335C33.9955 53.4835 34.062 52.7335 34.3662 51.8897C34.4612 51.5897 34.6038 51.2897 34.7558 50.9335C34.9649 50.446 35.212 49.9397 35.4496 49.4335L35.4876 49.3678C37.5405 44.896 39.7835 40.3303 42.112 35.8585L42.207 35.671C42.4446 35.221 42.6822 34.7428 42.9293 34.2928C43.1764 33.8147 43.4425 33.3553 43.7847 32.9803C44.0808 32.6316 44.4509 32.3512 44.8688 32.1587C45.2867 31.9663 45.7423 31.8666 46.2034 31.8666C46.6646 31.8666 47.1202 31.9663 47.5381 32.1587C47.956 32.3512 48.3261 32.6316 48.6222 32.9803C48.9549 33.3553 49.2305 33.8147 49.4776 34.2928C49.7152 34.7428 49.9528 35.2303 50.1999 35.671L50.2949 35.8585C52.6139 40.3303 54.8569 44.896 56.9478 49.3678L56.9763 49.396C57.2234 49.8835 57.4325 50.4272 57.6701 50.896C57.8221 51.2616 57.9742 51.5522 58.0692 51.8616C58.2498 52.7053 58.3449 53.4553 58.2498 54.2053ZM71.4794 52.6116C70.7633 52.6219 70.0539 52.4731 69.404 52.1761C68.7542 51.8791 68.1804 51.4416 67.7253 50.896C66.7028 49.7334 66.1601 48.2345 66.2047 46.696C66.189 45.124 66.7493 43.5993 67.7824 42.4022C68.2602 41.8497 68.8551 41.4072 69.525 41.1059C70.195 40.8046 70.9238 40.6519 71.66 40.6585C72.3528 40.6398 73.039 40.7952 73.6542 41.11C74.2693 41.4249 74.7932 41.8889 75.1765 42.4585L75.2715 40.9866H78.0467V52.3116H75.262L75.167 50.6616C74.7718 51.2697 74.2256 51.7681 73.5802 52.1094C72.9348 52.4507 72.2116 52.6235 71.4794 52.6116ZM72.2017 49.9116C72.753 49.9116 73.2377 49.7616 73.6939 49.4897C74.1121 49.1897 74.4542 48.796 74.7203 48.3178C74.9579 47.8397 75.0815 47.2678 75.0815 46.6303C75.1185 46.0767 75.0093 45.523 74.7644 45.0234C74.5195 44.5238 74.1474 44.0955 73.6844 43.7803C73.2395 43.5069 72.7259 43.362 72.2017 43.362C71.6776 43.362 71.164 43.5069 70.7191 43.7803C70.3009 44.0803 69.9588 44.4741 69.6927 44.9522C69.4413 45.4795 69.3177 46.0572 69.3315 46.6397C69.2945 47.1934 69.4037 47.7471 69.6486 48.2467C69.8935 48.7462 70.2656 49.1745 70.7286 49.4897C71.1753 49.7616 71.66 49.9116 72.2017 49.9116ZM82.7987 37.9303C82.7987 38.2585 82.7417 38.5585 82.5897 38.8022C82.4376 39.0366 82.2285 39.2522 81.9529 39.4022C81.6773 39.5522 81.3826 39.6085 81.0785 39.6085C80.7744 39.6085 80.4703 39.5522 80.1946 39.4022C79.934 39.2591 79.7148 39.0525 79.5579 38.8022C79.4107 38.5352 79.3385 38.2342 79.3488 37.9303C79.3488 37.5928 79.4153 37.2928 79.5579 37.0585C79.7099 36.7772 79.9285 36.6085 80.1946 36.4585C80.4703 36.3085 80.7649 36.2428 81.0785 36.2428C81.381 36.236 81.6802 36.3066 81.9467 36.448C82.2133 36.5893 82.4381 36.7964 82.5992 37.0491C82.7375 37.3224 82.806 37.6249 82.7987 37.9303ZM79.5674 52.2741V40.9678H82.5897V52.2928H79.5579L79.5674 52.2741ZM90.6681 43.9303V43.9678C90.5255 43.9022 90.3354 43.8741 90.1929 43.846C90.0028 43.8085 89.8507 43.8085 89.6702 43.8085C88.8243 43.8085 88.1875 44.0522 87.7694 44.5585C87.3132 45.0741 87.1041 45.796 87.1041 46.7241V52.2835H84.0723V40.9585H86.857L86.952 42.6741C87.2561 42.0741 87.6173 41.6241 88.1305 41.2866C88.641 40.9587 89.242 40.7949 89.8507 40.8178C90.0693 40.8178 90.2784 40.8366 90.459 40.8741C90.554 40.9022 90.6111 40.9022 90.6681 40.9303V43.9303ZM91.8846 52.2741V36.3178H94.9069V42.4116C95.3346 41.8678 95.8193 41.446 96.4275 41.1178C97.3905 40.6521 98.4844 40.52 99.5328 40.7428C100.581 40.9657 101.523 41.5304 102.206 42.346C103.231 43.5109 103.774 45.0136 103.727 46.5553C103.742 48.1273 103.182 49.6521 102.149 50.8491C101.671 51.4016 101.076 51.8441 100.406 52.1454C99.7363 52.4467 99.0076 52.5994 98.2713 52.5928C97.5785 52.6115 96.8923 52.4562 96.2772 52.1413C95.662 51.8264 95.1382 51.3624 94.7548 50.7928L94.6598 52.2647L91.8846 52.2928V52.2741ZM97.7296 49.9116C98.2713 49.9116 98.756 49.7616 99.2122 49.4897C99.6304 49.1897 99.9725 48.796 100.239 48.3178C100.486 47.8397 100.6 47.2678 100.6 46.6303C100.6 46.0022 100.486 45.4303 100.239 44.9522C99.9891 44.4912 99.6384 44.0909 99.2122 43.7803C98.7674 43.5069 98.2537 43.362 97.7296 43.362C97.2055 43.362 96.6918 43.5069 96.247 43.7803C95.8193 44.0803 95.4866 44.4741 95.211 44.9522C94.9597 45.4795 94.836 46.0572 94.8499 46.6397C94.8128 47.1934 94.9221 47.7471 95.167 48.2467C95.4119 48.7462 95.784 49.1745 96.247 49.4897C96.6936 49.7616 97.1784 49.9116 97.7296 49.9116ZM104.867 52.2835V40.9585H107.652L107.747 42.4303C108.097 41.8661 108.593 41.4044 109.185 41.0929C109.776 40.7814 110.441 40.6314 111.111 40.6585C111.877 40.6454 112.63 40.8555 113.276 41.2623C113.922 41.6692 114.432 42.2548 114.742 42.946C115.074 43.6585 115.255 44.5397 115.255 45.5241V52.3116H112.223V45.9178C112.223 45.1303 112.043 44.5116 111.682 44.0522C111.32 43.6022 110.826 43.3585 110.199 43.3585C109.743 43.3585 109.344 43.4522 108.992 43.6585C108.659 43.8741 108.384 44.146 108.175 44.5303C107.963 44.9189 107.858 45.3552 107.87 45.796V52.2835H104.867ZM116.766 52.2835V36.3085H119.798V42.4022C120.209 41.8554 120.743 41.4106 121.358 41.103C121.974 40.7955 122.653 40.6336 123.343 40.6303C124.059 40.62 124.768 40.7689 125.418 41.0659C126.068 41.3629 126.642 41.8004 127.097 42.346C128.115 43.5108 128.654 45.009 128.608 46.546C128.625 48.1181 128.064 49.6431 127.031 50.8397C126.553 51.3923 125.958 51.8348 125.288 52.136C124.618 52.4373 123.889 52.59 123.153 52.5835C122.46 52.6022 121.774 52.4468 121.159 52.1319C120.544 51.817 120.02 51.353 119.636 50.7835L119.551 52.2553L116.766 52.2835ZM122.64 49.9116C123.191 49.9116 123.676 49.7616 124.122 49.4897C124.55 49.1897 124.883 48.796 125.158 48.3178C125.396 47.8397 125.519 47.2678 125.519 46.6303C125.556 46.0767 125.447 45.523 125.202 45.0234C124.957 44.5238 124.585 44.0955 124.122 43.7803C123.677 43.5069 123.164 43.362 122.64 43.362C122.116 43.362 121.602 43.5069 121.157 43.7803C120.739 44.0803 120.397 44.4741 120.131 44.9522C119.865 45.4748 119.741 46.056 119.769 46.6397C119.732 47.1934 119.842 47.7471 120.087 48.2467C120.331 48.7462 120.704 49.1745 121.167 49.4897C121.613 49.7616 122.069 49.9116 122.64 49.9116Z"/>
</g>
</g>

</symbol><symbol id="amazon" viewBox="0 0 160 90">
<g clip-path="url(#clip0_134_649)">
<g clip-path="url(#clip1_134_649)">
<path fill-rule="evenodd" clip-rule="evenodd" d="M92.1402 53.461C86.5068 57.725 78.3415 60.0001 71.3114 60.0001C61.4539 60.0001 52.5797 56.256 45.8661 50.0289C45.3386 49.5393 45.8112 48.8719 46.4442 49.2533C53.6895 53.5823 62.6481 56.1867 71.9021 56.1867C78.1432 56.1867 85.0088 54.8607 91.3216 52.109C92.2753 51.693 93.0728 52.7503 92.1402 53.461Z"/>
<path fill-rule="evenodd" clip-rule="evenodd" d="M94.4824 50.7093C93.7651 49.7646 89.7225 50.2629 87.908 50.4839C87.3552 50.5533 87.2708 50.0593 87.7688 49.7039C90.9885 47.3769 96.2716 48.0486 96.8877 48.8286C97.5038 49.6129 96.7274 55.0513 93.7018 57.647C93.2376 58.0457 92.7945 57.8333 93.0013 57.3047C93.6807 55.5627 95.204 51.6583 94.4824 50.7093Z"/>
<path fill-rule="evenodd" clip-rule="evenodd" d="M88.0349 33.2762V31.0141C88.0349 30.6718 88.2881 30.4421 88.5919 30.4421H98.4535C98.77 30.4421 99.0232 30.6761 99.0232 31.0141V32.9512C99.019 33.2762 98.7531 33.7008 98.2805 34.3725L93.1703 41.8649C95.0693 41.8173 97.0737 42.1076 98.7953 43.1043C99.1835 43.3296 99.289 43.6589 99.3186 43.9839V46.3976C99.3186 46.727 98.9641 47.1126 98.5928 46.9133C95.5587 45.2796 91.5288 45.102 88.1741 46.9306C87.8323 47.1213 87.4736 46.74 87.4736 46.4106V44.1183C87.4736 43.7499 87.4778 43.1216 87.8365 42.5626L93.7569 33.8438H88.6045C88.288 33.8438 88.0349 33.6142 88.0349 33.2762Z"/>
<path fill-rule="evenodd" clip-rule="evenodd" d="M52.0611 47.3898H49.0608C48.7739 47.3681 48.546 47.1471 48.5249 46.8654V31.053C48.5249 30.7366 48.7823 30.4853 49.103 30.4853H51.9007C52.1919 30.4983 52.424 30.728 52.4451 31.014V33.081H52.4999C53.23 31.0833 54.6014 30.1516 56.4497 30.1516C58.3275 30.1516 59.5006 31.0833 60.3445 33.081C61.0703 31.0833 62.7203 30.1516 64.4884 30.1516C65.7459 30.1516 67.1215 30.6846 67.9612 31.8806C68.9107 33.211 68.7166 35.1437 68.7166 36.838L68.7124 46.8178C68.7124 47.1341 68.455 47.3898 68.1343 47.3898H65.1382C64.8386 47.3681 64.5981 47.1211 64.5981 46.8178V38.437C64.5981 37.7697 64.6571 36.1057 64.5137 35.473C64.29 34.4113 63.6191 34.1123 62.7498 34.1123C62.024 34.1123 61.2644 34.6107 60.9564 35.408C60.6484 36.2053 60.6779 37.54 60.6779 38.437V46.8178C60.6779 47.1341 60.4205 47.3898 60.0998 47.3898H57.1037C56.7999 47.3681 56.5636 47.1211 56.5636 46.8178L56.5594 38.437C56.5594 36.6733 56.8421 34.0777 54.7111 34.0777C52.5548 34.0777 52.6392 36.6083 52.6392 38.437V46.8178C52.6392 47.1341 52.3818 47.3898 52.0611 47.3898"/>
<path fill-rule="evenodd" clip-rule="evenodd" d="M107.513 30.1516C111.965 30.1516 114.374 34.0777 114.374 39.0697C114.374 43.8928 111.712 47.7191 107.513 47.7191C103.141 47.7191 100.761 43.7931 100.761 38.9007C100.761 33.978 103.171 30.1516 107.513 30.1516ZM107.538 33.38C105.327 33.38 105.188 36.474 105.188 38.4024C105.188 40.3351 105.158 44.4604 107.513 44.4604C109.838 44.4604 109.948 41.1324 109.948 39.1044C109.948 37.7697 109.893 36.175 109.5 34.9097C109.163 33.809 108.492 33.38 107.538 33.38Z"/>
<path fill-rule="evenodd" clip-rule="evenodd" d="M120.147 47.3898H117.16C116.86 47.3681 116.619 47.1211 116.619 46.8178L116.615 31.001C116.641 30.7106 116.89 30.4853 117.193 30.4853H119.974C120.236 30.4983 120.451 30.6803 120.51 30.9273V33.3453H120.565C121.405 31.183 122.582 30.1516 124.654 30.1516C126 30.1516 127.312 30.65 128.156 32.015C128.941 33.2803 128.941 35.408 128.941 36.9377V46.8914C128.907 47.1688 128.658 47.3898 128.363 47.3898H125.354C125.08 47.3681 124.852 47.1601 124.823 46.8914V38.3027C124.823 36.5737 125.017 34.043 122.945 34.043C122.215 34.043 121.544 34.5457 121.211 35.3083C120.789 36.2747 120.734 37.2367 120.734 38.3027V46.8178C120.73 47.1341 120.468 47.3898 120.147 47.3898"/>
<path fill-rule="evenodd" clip-rule="evenodd" d="M80.173 39.8368C80.173 41.0371 80.2025 42.0381 79.6117 43.1041C79.1349 43.9708 78.3754 44.5038 77.5356 44.5038C76.3836 44.5038 75.7084 43.6025 75.7084 42.2721C75.7084 39.6461 77.9998 39.1694 80.173 39.1694V39.8368ZM83.1986 47.3465C83.0002 47.5285 82.7133 47.5415 82.4896 47.4202C81.4938 46.5708 81.3123 46.1765 80.768 45.3662C79.1223 47.0908 77.9534 47.6065 75.8224 47.6065C73.2947 47.6065 71.3325 46.0075 71.3325 42.8051C71.3325 40.3048 72.6491 38.6018 74.5311 37.7697C76.16 37.0331 78.4344 36.9031 80.173 36.6994V36.3007C80.173 35.5684 80.2278 34.7017 79.8059 34.069C79.443 33.5014 78.7425 33.2674 78.1222 33.2674C76.9786 33.2674 75.9616 33.8697 75.7127 35.1177C75.662 35.3951 75.4637 35.6681 75.1894 35.6811L72.282 35.3604C72.0372 35.3041 71.7629 35.1004 71.8347 34.7147C72.5014 31.092 75.6916 30 78.5441 30C80.0042 30 81.9115 30.3987 83.0635 31.534C84.5236 32.9337 84.3843 34.8014 84.3843 36.8337V41.6351C84.3843 43.0781 84.9667 43.7108 85.5152 44.4908C85.7051 44.7682 85.7473 45.1018 85.5026 45.3098C84.8907 45.8342 83.802 46.8092 83.2028 47.3552L83.1986 47.3465"/>
<path fill-rule="evenodd" clip-rule="evenodd" d="M40.8405 39.837C40.8405 41.0374 40.87 42.0384 40.2792 43.1044C39.8024 43.9711 39.047 44.5041 38.2031 44.5041C37.0511 44.5041 36.3801 43.6027 36.3801 42.2724C36.3801 39.6463 38.6715 39.1697 40.8405 39.1697V39.837ZM43.866 47.3468C43.6677 47.5288 43.3808 47.5418 43.1571 47.4204C42.1612 46.5711 41.984 46.1767 41.4354 45.3664C39.7897 47.0911 38.6251 47.6068 36.4899 47.6068C33.9664 47.6068 32 46.0077 32 42.8054C32 40.305 33.3208 38.602 35.1986 37.77C36.8274 37.0333 39.1019 36.9033 40.8405 36.6996V36.301C40.8405 35.5686 40.8953 34.702 40.4776 34.0693C40.1104 33.5016 39.4099 33.2676 38.7939 33.2676C37.6503 33.2676 36.6291 33.87 36.3801 35.118C36.3295 35.3953 36.1312 35.6683 35.8611 35.6813L32.9495 35.3606C32.7047 35.3043 32.4346 35.1006 32.5022 34.715C33.1731 31.0923 36.359 30.0002 39.2116 30.0002C40.6717 30.0002 42.579 30.3989 43.731 31.5343C45.1911 32.9339 45.0518 34.8016 45.0518 36.834V41.6354C45.0518 43.0784 45.6341 43.7111 46.1827 44.4911C46.3768 44.7684 46.419 45.1021 46.1743 45.3101C45.5624 45.8344 44.4737 46.8094 43.8745 47.3554L43.866 47.3467"/>
</g>
</g>

</symbol><symbol id="fedex" viewBox="0 0 160 90">
<g clip-path="url(#clip0_134_660)">
<g clip-path="url(#clip1_134_660)">
<path d="M102.931 58.2206L110.78 49.5614L102.931 40.9009H111.212L115.1 45.1076L118.843 40.9009H126.836L119.024 49.5256L126.943 58.2206H118.627L114.775 53.9794L110.959 58.2206H102.931Z"/>
<path d="M102.931 37.0185H94.0411V40.901H102.931V46.7522H94.0411V52.1229H102.931V58.2208H87.5073V30.9375H102.931V37.0185Z"/>
<path d="M81.0012 30.9375V42.1031H80.9295C79.4891 40.4775 77.6894 39.9126 75.6013 39.9126C71.3238 39.9126 68.1017 42.7677 66.9707 46.5425C65.6808 42.3832 62.3544 39.8346 57.4218 39.8346C53.4161 39.8346 50.2529 41.6001 48.6022 44.4769V40.9014H40.3223V37.0193H49.358V30.9375H32.9414V58.2212H40.3223V46.7522H47.679C47.4597 47.5947 47.3426 48.4967 47.3426 49.4486C47.3426 55.1399 51.7707 59.1332 57.4218 59.1332C62.1739 59.1332 65.3056 56.9427 66.9621 52.9489H60.637C59.7813 54.1487 59.1323 54.505 57.4218 54.505C55.4384 54.505 53.7283 52.8059 53.7283 50.7917H66.6077C67.1663 55.3122 70.7526 59.2108 75.6741 59.2108C77.7971 59.2108 79.7408 58.1854 80.9295 56.4541H81.0012V58.2204H87.5075V30.9375H81.0012ZM53.9337 46.8337C54.3442 45.1008 55.713 43.9682 57.4218 43.9682C59.3029 43.9682 60.6022 45.0659 60.9439 46.8337C61.0879 46.8337 53.9337 46.8337 53.9337 46.8337ZM77.0527 54.0667C74.6543 54.0667 73.164 51.8725 73.164 49.5816C73.164 47.1327 74.4604 44.7778 77.0527 44.7778C79.7408 44.7778 80.8117 47.1327 80.8117 49.5816C80.8113 51.9039 79.6765 54.0667 77.0527 54.0667Z"/>
</g>
</g>

</symbol><symbol id="google" viewBox="0 0 160 90">
<g clip-path="url(#clip0_134_677)">
<g clip-path="url(#clip1_134_677)">
<path d="M73.8141 45.3847C73.8141 49.5488 70.5302 52.6173 66.5 52.6173C62.4699 52.6173 59.186 49.5488 59.186 45.3847C59.186 41.1912 62.4699 38.1521 66.5 38.1521C70.5302 38.1521 73.8141 41.1912 73.8141 45.3847ZM70.6123 45.3847C70.6123 42.7825 68.709 41.0021 66.5 41.0021C64.2911 41.0021 62.3878 42.7825 62.3878 45.3847C62.3878 47.9608 64.2911 49.7673 66.5 49.7673C68.709 49.7673 70.6123 47.9575 70.6123 45.3847Z"/>
<path d="M89.5924 45.3847C89.5924 49.5488 86.3085 52.6173 82.2784 52.6173C78.2483 52.6173 74.9644 49.5488 74.9644 45.3847C74.9644 41.1945 78.2483 38.1521 82.2784 38.1521C86.3085 38.1521 89.5924 41.1912 89.5924 45.3847ZM86.3906 45.3847C86.3906 42.7825 84.4874 41.0021 82.2784 41.0021C80.0694 41.0021 78.1661 42.7825 78.1661 45.3847C78.1661 47.9608 80.0694 49.7673 82.2784 49.7673C84.4874 49.7673 86.3906 47.9575 86.3906 45.3847Z"/>
<path d="M104.714 38.5891V51.5738C104.714 56.9151 101.538 59.0967 97.7841 59.0967C94.2503 59.0967 92.1235 56.7521 91.3214 54.8347L94.109 53.6836C94.6054 54.8608 95.8216 56.2499 97.7808 56.2499C100.184 56.2499 101.673 54.7793 101.673 52.0108V50.9706H101.561C100.844 51.8478 99.4638 52.6141 97.7216 52.6141C94.0761 52.6141 90.7363 49.4641 90.7363 45.4108C90.7363 41.3282 94.0761 38.1521 97.7216 38.1521C99.4606 38.1521 100.841 38.9184 101.561 39.7695H101.673V38.5923H104.714V38.5891ZM101.9 45.4108C101.9 42.8641 100.187 41.0021 98.0076 41.0021C95.7986 41.0021 93.9479 42.8641 93.9479 45.4108C93.9479 47.9314 95.7986 49.7673 98.0076 49.7673C100.187 49.7673 101.9 47.9314 101.9 45.4108Z"/>
<path d="M109.726 30.9783V52.1739H106.604V30.9783H109.726Z"/>
<path d="M121.896 47.7652L124.381 49.4087C123.579 50.5859 121.646 52.6141 118.306 52.6141C114.165 52.6141 111.071 49.4381 111.071 45.3815C111.071 41.0804 114.191 38.1489 117.948 38.1489C121.732 38.1489 123.582 41.1359 124.187 42.75L124.519 43.5718L114.773 47.5761C115.519 49.0272 116.679 49.7674 118.306 49.7674C119.937 49.7674 121.068 48.9718 121.896 47.7652ZM114.247 45.1631L120.762 42.4794C120.404 41.5761 119.325 40.9468 118.057 40.9468C116.429 40.9468 114.165 42.3718 114.247 45.1631Z"/>
<path d="M47.3655 43.5033V40.4348H57.7892C57.8911 40.9696 57.9437 41.6022 57.9437 42.287C57.9437 44.5892 57.3093 47.4359 55.2646 49.4642C53.2759 51.5185 50.7349 52.6142 47.3688 52.6142C41.1297 52.6142 35.8833 47.5729 35.8833 41.3838C35.8833 35.1946 41.1297 30.1533 47.3688 30.1533C50.8203 30.1533 53.2792 31.4968 55.1266 33.2479L52.9439 35.4131C51.6191 34.1805 49.8243 33.2218 47.3655 33.2218C42.8094 33.2218 39.2461 36.8642 39.2461 41.3838C39.2461 45.9033 42.8094 49.5457 47.3655 49.5457C50.3207 49.5457 52.0037 48.3685 53.0819 47.299C53.9563 46.4316 54.5316 45.1925 54.7584 43.5001L47.3655 43.5033Z"/>
</g>
</g>

</symbol><symbol id="microsoft" viewBox="0 0 160 90">
<g clip-path="url(#clip0_134_668)">
<g clip-path="url(#clip1_134_668)">
<path d="M63.119 46.8516L62.4346 48.779H62.3776C62.2635 48.3444 62.0544 47.683 61.7122 46.8894L58.0432 37.7252H54.4502V52.3313H56.8265V43.3182C56.8265 42.7513 56.8265 42.1089 56.8075 41.3153C56.7885 40.9185 56.7505 40.6162 56.7315 40.3894H56.7885C56.9025 40.9563 57.0356 41.372 57.1307 41.6365L61.5411 52.2935H63.214L67.5865 41.542C67.6815 41.2964 67.7766 40.8051 67.8716 40.3894H67.9287C67.8716 41.4665 67.8336 42.4301 67.8146 43.0159V52.2746H70.343V37.6874H66.8831L63.119 46.8516ZM72.7383 41.8066H75.2097V52.2746H72.7383V41.8066ZM73.993 37.3851C73.5748 37.3851 73.2326 37.5362 72.9474 37.8008C72.6623 38.0653 72.5102 38.4054 72.5102 38.8211C72.5102 39.2179 72.6623 39.558 72.9474 39.8226C73.2326 40.0871 73.5748 40.2194 73.993 40.2194C74.4112 40.2194 74.7724 40.0682 75.0386 39.8226C75.3237 39.558 75.4758 39.2179 75.4758 38.8211C75.4758 38.4243 75.3237 38.0842 75.0386 37.8008C74.7914 37.5362 74.4302 37.3851 73.993 37.3851ZM83.9735 41.7121C83.5173 41.6176 83.042 41.5609 82.5858 41.5609C81.4641 41.5609 80.4376 41.8066 79.5821 42.2979C78.7266 42.7891 78.0422 43.4694 77.605 44.3197C77.1488 45.1888 76.9206 46.1903 76.9206 47.3429C76.9206 48.3444 77.1487 49.2324 77.586 50.0449C78.0232 50.8385 78.6316 51.481 79.449 51.9156C80.2285 52.3502 81.141 52.5769 82.1675 52.5769C83.3462 52.5769 84.3537 52.3313 85.1522 51.8778L85.1712 51.8589V49.5915L85.0761 49.667C84.7149 49.9316 84.2967 50.1583 83.8785 50.2906C83.4412 50.4417 83.042 50.5173 82.6998 50.5173C81.7113 50.5173 80.9318 50.2339 80.3805 49.6104C79.8102 49.0057 79.5251 48.1743 79.5251 47.1351C79.5251 46.058 79.8102 45.2077 80.3996 44.5842C80.9889 43.9606 81.7683 43.6394 82.7188 43.6394C83.5173 43.6394 84.3347 43.904 85.0761 44.433L85.1712 44.5086V42.1089L85.1522 42.09C84.829 41.9577 84.4678 41.8066 83.9735 41.7121ZM92.129 41.6365C91.5207 41.6365 90.9504 41.8255 90.4561 42.2223C90.0379 42.5624 89.7527 43.0537 89.5056 43.6394H89.4866V41.8066H87.0152V52.2746H89.4866V46.9272C89.4866 46.0202 89.6767 45.2644 90.0949 44.7165C90.5131 44.1496 91.0454 43.8662 91.6918 43.8662C91.9199 43.8662 92.148 43.9229 92.4332 43.9606C92.6994 44.0362 92.8895 44.1118 93.0225 44.2063L93.1176 44.2819V41.8255L93.0606 41.8066C92.8895 41.6932 92.5473 41.6365 92.129 41.6365ZM98.8588 41.5798C97.1288 41.5798 95.741 42.09 94.7715 43.0915C93.783 44.0929 93.3077 45.4723 93.3077 47.2106C93.3077 48.8356 93.802 50.1583 94.7525 51.122C95.703 52.0667 96.9957 52.558 98.6116 52.558C100.304 52.558 101.653 52.0479 102.623 51.0275C103.611 50.0072 104.087 48.6467 104.087 46.965C104.087 45.3022 103.63 43.9795 102.699 43.0159C101.805 42.0522 100.494 41.5798 98.8588 41.5798ZM100.836 49.6292C100.38 50.215 99.6572 50.4984 98.7637 50.4984C97.8702 50.4984 97.1478 50.215 96.6345 49.5915C96.1212 49.0057 95.8741 48.1554 95.8741 47.0784C95.8741 45.9635 96.1403 45.1133 96.6345 44.5086C97.1478 43.904 97.8512 43.6016 98.7447 43.6016C99.6192 43.6016 100.304 43.8851 100.798 44.4708C101.292 45.0566 101.558 45.9069 101.558 47.0217C101.52 48.1554 101.311 49.0435 100.836 49.6292ZM109.6 46.1525C108.82 45.8313 108.326 45.5856 108.098 45.3778C107.908 45.1888 107.813 44.9243 107.813 44.5842C107.813 44.3008 107.927 44.0173 108.212 43.8284C108.497 43.6394 108.82 43.5449 109.296 43.5449C109.714 43.5449 110.151 43.6205 110.569 43.7339C110.987 43.8473 111.368 44.0173 111.672 44.2441L111.767 44.3197V42.0144L111.71 41.9955C111.425 41.8822 111.045 41.7688 110.588 41.6743C110.132 41.5987 109.714 41.5609 109.372 41.5609C108.193 41.5609 107.223 41.8444 106.463 42.4679C105.703 43.0537 105.341 43.8473 105.341 44.7731C105.341 45.2644 105.417 45.699 105.588 46.058C105.76 46.417 106.007 46.7572 106.349 47.0406C106.691 47.3051 107.185 47.6074 107.87 47.8909C108.44 48.1365 108.877 48.3255 109.143 48.4766C109.41 48.6278 109.581 48.7979 109.714 48.9301C109.809 49.0813 109.866 49.2702 109.866 49.5159C109.866 50.215 109.334 50.5551 108.25 50.5551C107.832 50.5551 107.394 50.4795 106.881 50.3095C106.368 50.1394 105.893 49.8938 105.493 49.6104L105.398 49.5348V51.9345L105.455 51.9534C105.817 52.1234 106.254 52.2368 106.786 52.3691C107.318 52.4635 107.794 52.5391 108.212 52.5391C109.486 52.5391 110.531 52.2557 111.273 51.6322C112.033 51.0275 112.432 50.2528 112.432 49.2513C112.432 48.5522 112.242 47.9287 111.824 47.4563C111.273 47.0028 110.588 46.5304 109.6 46.1525ZM118.953 41.5798C117.223 41.5798 115.835 42.09 114.866 43.0915C113.896 44.0929 113.402 45.4723 113.402 47.2106C113.402 48.8356 113.896 50.1583 114.847 51.122C115.797 52.0667 117.09 52.558 118.706 52.558C120.398 52.558 121.747 52.0479 122.717 51.0275C123.706 50.0072 124.181 48.6467 124.181 46.965C124.181 45.3022 123.725 43.9795 122.793 43.0159C121.9 42.0522 120.588 41.5798 118.953 41.5798ZM120.911 49.6292C120.455 50.215 119.732 50.4984 118.839 50.4984C117.926 50.4984 117.223 50.215 116.71 49.5915C116.196 49.0057 115.949 48.1554 115.949 47.0784C115.949 45.9635 116.215 45.1133 116.71 44.5086C117.223 43.904 117.926 43.6016 118.82 43.6016C119.675 43.6016 120.379 43.8851 120.873 44.4708C121.367 45.0566 121.633 45.9069 121.633 47.0217C121.633 48.1554 121.386 49.0435 120.911 49.6292ZM137.393 43.8284V41.8066H134.903V38.7077L134.827 38.7266L132.469 39.4258L132.412 39.4447V41.8066H128.686V40.4839C128.686 39.8792 128.838 39.4069 129.104 39.1045C129.371 38.8022 129.77 38.651 130.264 38.651C130.606 38.651 130.968 38.7266 131.367 38.8967L131.462 38.9534V36.8182L131.405 36.7993C131.063 36.6859 130.606 36.6104 130.017 36.6104C129.276 36.6104 128.629 36.7804 128.04 37.0638C127.451 37.3851 127.013 37.8197 126.69 38.4054C126.367 38.9723 126.196 39.6147 126.196 40.3516V41.8066H124.466V43.8095H126.196V52.2746H128.686V43.8284H132.412V49.2136C132.412 51.4243 133.458 52.5391 135.549 52.5391C135.891 52.5391 136.252 52.4824 136.595 52.4258C136.956 52.3502 137.222 52.2557 137.374 52.1801L137.393 52.1612V50.1394L137.298 50.215C137.146 50.3095 137.013 50.3851 136.785 50.4417C136.595 50.4984 136.424 50.5173 136.29 50.5173C135.796 50.5173 135.454 50.404 135.207 50.1205C134.979 49.856 134.865 49.4214 134.865 48.779V43.8284H137.393Z"/>
<path d="M22.5884 32.8125H34.2418V44.3953H22.5884V32.8125Z"/>
<path d="M35.4585 32.8125H47.1119V44.3953H35.4585V32.8125Z"/>
<path d="M22.5884 45.6047H34.2418V57.1876H22.5884V45.6047Z"/>
<path d="M35.4585 45.6047H47.1119V57.1876H35.4585V45.6047Z"/>
</g>
</g>

</symbol><symbol id="pin" viewBox="0 0 54 54">
<ellipse cx="27" cy="50.5" rx="13" ry="2.5" fill-opacity="0.2"/>
<path d="M29.6448 43.1901C31.158 41.0102 33.4641 39.5607 35.8496 38.3985C42.4563 35.18 47 28.4702 47 20.7143C47 9.82639 38.0457 1 27 1C15.9543 1 7 9.82639 7 20.7143C7 28.4702 11.5437 35.18 18.1504 38.3985C20.5359 39.5607 22.842 41.0102 24.3552 43.1901L27 47L29.6448 43.1901Z"/>
<circle cx="27" cy="21" r="12.5"/>
</symbol><symbol id="corona" viewBox="0 0 24 24">
<path d="M2 8L3.304 9.043C3.75828 9.40635 4.28636 9.66624 4.85139 9.80456C5.41643 9.94287 6.00484 9.95628 6.57559 9.84384C7.14634 9.7314 7.6857 9.49583 8.15606 9.15355C8.62642 8.81126 9.01647 8.3705 9.299 7.862L12 3L14.701 7.862C14.9836 8.37042 15.3737 8.81109 15.8441 9.15328C16.3145 9.49546 16.8539 9.73093 17.4247 9.84327C17.9954 9.95561 18.5838 9.94212 19.1488 9.80373C19.7138 9.66534 20.2418 9.40539 20.696 9.042L22 8L20.246 16.77C20.1694 17.1527 20.0065 17.5129 19.7696 17.8231C19.5327 18.1333 19.2281 18.3854 18.879 18.56C16.7432 19.628 14.388 20.184 12 20.184C9.61202 20.184 7.25684 19.628 5.121 18.56C4.77193 18.3854 4.46733 18.1333 4.23043 17.8231C3.99353 17.5129 3.83058 17.1527 3.754 16.77L2 8Z" stroke-width="2" stroke-linecap="round" stroke-linejoin="round"/>
<path d="M8 15C10.596 16.333 13.404 16.333 16 15" stroke-width="2" stroke-linecap="round" stroke-linejoin="round"/>
</symbol><symbol id="heart" viewBox="0 0 24 24">
<path d="M4.31802 6.31802C2.56066 8.07538 2.56066 10.9246 4.31802 12.682L12.0001 20.364L19.682 12.682C21.4393 10.9246 21.4393 8.07538 19.682 6.31802C17.9246 4.56066 15.0754 4.56066 13.318 6.31802L12.0001 7.63609L10.682 6.31802C8.92462 4.56066 6.07538 4.56066 4.31802 6.31802Z" stroke-width="2" stroke-linecap="round" stroke-linejoin="round"/>
</symbol><symbol id="mark" viewBox="0 0 20 20">
<path fill-rule="evenodd" clip-rule="evenodd" d="M9.6 19.2C14.9019 19.2 19.2 14.9019 19.2 9.6C19.2 4.29807 14.9019 0 9.6 0C4.29807 0 0 4.29807 0 9.6C0 14.9019 4.29807 19.2 9.6 19.2ZM14.0485 8.04853C14.5172 7.5799 14.5172 6.8201 14.0485 6.35147C13.5799 5.88284 12.8201 5.88284 12.3515 6.35147L8.4 10.3029L6.84853 8.75147C6.3799 8.28284 5.6201 8.28284 5.15147 8.75147C4.68284 9.2201 4.68284 9.9799 5.15147 10.4485L7.55147 12.8485C8.0201 13.3172 8.7799 13.3172 9.24853 12.8485L14.0485 8.04853Z"/>
</symbol><symbol id="thunder" viewBox="0 0 24 24">
<path d="M13 10V3L4 14H11L11 21L20 10L13 10Z" stroke-width="2" stroke-linecap="round" stroke-linejoin="round"/>
</symbol><symbol id="next" viewBox="0 0 18 18">
<path fill-rule="evenodd" clip-rule="evenodd" d="M9.26341 2.9638C9.61488 2.61233 10.1847 2.61233 10.5362 2.9638L15.9362 8.3638C16.2877 8.71527 16.2877 9.28512 15.9362 9.63659L10.5362 15.0366C10.1847 15.3881 9.61488 15.3881 9.26341 15.0366C8.91194 14.6851 8.91194 14.1153 9.26341 13.7638L13.127 9.9002L2.69981 9.9002C2.20275 9.9002 1.7998 9.49725 1.7998 9.0002C1.7998 8.50314 2.20275 8.1002 2.69981 8.1002H13.127L9.26341 4.23659C8.91194 3.88512 8.91194 3.31527 9.26341 2.9638Z"/>
</symbol><symbol id="prevDisable" viewBox="0 0 18 18">
<path fill-rule="evenodd" clip-rule="evenodd" d="M8.73659 15.0362C8.38512 15.3877 7.81527 15.3877 7.4638 15.0362L2.0638 9.6362C1.71233 9.28473 1.71233 8.71488 2.0638 8.36341L7.4638 2.96341C7.81527 2.61194 8.38512 2.61194 8.73659 2.96341C9.08806 3.31488 9.08806 3.88473 8.73659 4.2362L4.87299 8.0998L15.3002 8.09981C15.7973 8.09981 16.2002 8.50275 16.2002 8.99981C16.2002 9.49686 15.7973 9.89981 15.3002 9.89981L4.87299 9.89981L8.73659 13.7634C9.08806 14.1149 9.08806 14.6847 8.73659 15.0362Z"/>
</symbol><symbol id="dashboard" viewBox="0 0 24 24">
<path fill-rule="evenodd" clip-rule="evenodd" d="M3.5999 3.6001C2.93716 3.6001 2.3999 4.13736 2.3999 4.8001C2.3999 5.46284 2.93716 6.0001 3.5999 6.0001V15.6001C3.5999 16.9256 4.67442 18.0001 5.9999 18.0001H9.10285L7.55137 19.5516C7.08274 20.0202 7.08274 20.78 7.55137 21.2486C8.02 21.7173 8.7798 21.7173 9.24843 21.2486L11.9999 18.4972L14.7514 21.2486C15.22 21.7173 15.9798 21.7173 16.4484 21.2486C16.9171 20.78 16.9171 20.0202 16.4484 19.5516L14.897 18.0001H17.9999C19.3254 18.0001 20.3999 16.9256 20.3999 15.6001V6.0001C21.0626 6.0001 21.5999 5.46284 21.5999 4.8001C21.5999 4.13736 21.0626 3.6001 20.3999 3.6001H3.5999ZM17.6484 9.24863C18.1171 8.78 18.1171 8.0202 17.6484 7.55157C17.1798 7.08294 16.42 7.08294 15.9514 7.55157L11.9999 11.503L10.4484 9.95157C9.9798 9.48294 9.22 9.48294 8.75137 9.95157L6.35137 12.3516C5.88274 12.8202 5.88274 13.58 6.35137 14.0486C6.82 14.5173 7.5798 14.5173 8.04843 14.0486L9.5999 12.4972L11.1514 14.0486C11.62 14.5173 12.3798 14.5173 12.8484 14.0486L17.6484 9.24863Z"/>
</symbol><symbol id="peopleGroup" viewBox="0 0 24 24">
<path d="M15.6002 5.9999C15.6002 7.98813 13.9884 9.5999 12.0002 9.5999C10.012 9.5999 8.4002 7.98813 8.4002 5.9999C8.4002 4.01168 10.012 2.3999 12.0002 2.3999C13.9884 2.3999 15.6002 4.01168 15.6002 5.9999Z"/>
<path d="M21.6002 8.3999C21.6002 9.72539 20.5257 10.7999 19.2002 10.7999C17.8747 10.7999 16.8002 9.72539 16.8002 8.3999C16.8002 7.07442 17.8747 5.9999 19.2002 5.9999C20.5257 5.9999 21.6002 7.07442 21.6002 8.3999Z"/>
<path d="M16.8002 16.7999C16.8002 14.1489 14.6512 11.9999 12.0002 11.9999C9.34923 11.9999 7.2002 14.1489 7.2002 16.7999V20.3999H16.8002V16.7999Z"/>
<path d="M7.2002 8.3999C7.2002 9.72539 6.12568 10.7999 4.8002 10.7999C3.47471 10.7999 2.4002 9.72539 2.4002 8.3999C2.4002 7.07442 3.47471 5.9999 4.8002 5.9999C6.12568 5.9999 7.2002 7.07442 7.2002 8.3999Z"/>
<path d="M19.2002 20.3999V16.7999C19.2002 15.5349 18.874 14.3461 18.3011 13.3131C18.5885 13.2392 18.8897 13.1999 19.2002 13.1999C21.1884 13.1999 22.8002 14.8117 22.8002 16.7999V20.3999H19.2002Z"/>
<path d="M5.69931 13.3131C5.12641 14.3461 4.8002 15.5349 4.8002 16.7999V20.3999H1.2002V16.7999C1.2002 14.8117 2.81197 13.1999 4.8002 13.1999C5.11065 13.1999 5.41192 13.2392 5.69931 13.3131Z"/>
</symbol><symbol id="smile" viewBox="0 0 24 24">
<path fill-rule="evenodd" clip-rule="evenodd" d="M12.0001 21.5999C6.69816 21.5999 2.4001 17.3018 2.4001 11.9999C2.4001 6.69797 6.69816 2.3999 12.0001 2.3999C17.302 2.3999 21.6001 6.69797 21.6001 11.9999C21.6001 17.3018 17.302 21.5999 12.0001 21.5999ZM15.6001 10.7999C14.9374 10.7999 14.4001 10.2626 14.4001 9.5999C14.4001 8.93716 14.9374 8.3999 15.6001 8.3999C16.2628 8.3999 16.8001 8.93716 16.8001 9.5999C16.8001 10.2626 16.2628 10.7999 15.6001 10.7999ZM7.2001 9.5999C7.2001 10.2626 7.73736 10.7999 8.4001 10.7999C9.06284 10.7999 9.6001 10.2626 9.6001 9.5999C9.6001 8.93716 9.06284 8.3999 8.4001 8.3999C7.73736 8.3999 7.2001 8.93716 7.2001 9.5999ZM7.75746 16.2424C7.28883 15.7738 7.28883 15.014 7.75746 14.5454C8.22609 14.0767 8.98588 14.0767 9.45451 14.5454C10.8604 15.9513 13.1398 15.9513 14.5457 14.5454C15.0143 14.0767 15.7741 14.0767 16.2427 14.5454C16.7114 15.014 16.7114 15.7738 16.2427 16.2424C13.8996 18.5856 10.1006 18.5856 7.75746 16.2424Z"/>
</symbol><symbol id="trends" viewBox="0 0 24 24">
<path fill-rule="evenodd" clip-rule="evenodd" d="M14.3999 8.4C13.7372 8.4 13.1999 7.86274 13.1999 7.2C13.1999 6.53726 13.7372 6 14.3999 6H20.3999C21.0626 6 21.5999 6.53726 21.5999 7.2V13.2C21.5999 13.8627 21.0626 14.4 20.3999 14.4C19.7372 14.4 19.1999 13.8627 19.1999 13.2V10.0971L14.0484 15.2485C13.5798 15.7172 12.82 15.7172 12.3514 15.2485L9.5999 12.4971L4.44843 17.6485C3.9798 18.1172 3.22 18.1172 2.75137 17.6485C2.28275 17.1799 2.28275 16.4201 2.75137 15.9515L8.75137 9.95147C9.22 9.48284 9.9798 9.48284 10.4484 9.95147L13.1999 12.7029L17.5028 8.4H14.3999Z"/>
</symbol></svg>